<?xml version="1.0" encoding="iso-8859-1"?>
<!-- Generator: Adobe Illustrator 17.1.0, SVG Export Plug-In . SVG Version: 6.00 Build 0)  -->
<!DOCTYPE svg PUBLIC "-//W3C//DTD SVG 1.1//EN" "http://www.w3.org/Graphics/SVG/1.1/DTD/svg11.dtd">
<svg version="1.1" id="Capa_1" xmlns="http://www.w3.org/2000/svg" xmlns:xlink="http://www.w3.org/1999/xlink" x="0px" y="0px"
	 viewBox="0 0 465.001 465.001" style="enable-background:new 0 0 465.001 465.001;" xml:space="preserve">
<g>
	<path d="M331.249,103.474c-23.435,0-42.5,19.065-42.5,42.5v44.495c0,4.142,3.357,7.5,7.5,7.5s7.5-3.358,7.5-7.5V178.34
		c7.418,6.313,17.019,10.134,27.5,10.134c23.435,0,42.5-19.065,42.5-42.5S354.683,103.474,331.249,103.474z M331.249,173.474
		c-15.163,0-27.5-12.336-27.5-27.5s12.337-27.5,27.5-27.5s27.5,12.336,27.5,27.5S346.412,173.474,331.249,173.474z"/>
	<path d="M207.208,319.606c-3.904-1.382-8.191,0.663-9.573,4.568c-1.482,4.188-5.466,7.002-9.913,7.002
		c-4.446,0-8.43-2.814-9.912-7.002c-1.383-3.904-5.663-5.95-9.573-4.568c-3.904,1.382-5.949,5.668-4.567,9.573
		c3.599,10.167,13.265,16.998,24.053,16.998s20.455-6.831,24.054-16.998C213.157,325.274,211.112,320.988,207.208,319.606z"/>
	<path d="M296.765,319.606c-3.904-1.382-8.191,0.663-9.573,4.568c-1.482,4.188-5.466,7.002-9.912,7.002
		c-4.447,0-8.431-2.814-9.913-7.002c-1.383-3.904-5.665-5.95-9.573-4.568c-3.904,1.382-5.949,5.668-4.567,9.573
		c3.599,10.167,13.266,16.998,24.054,16.998s20.454-6.831,24.053-16.998C302.715,325.274,300.67,320.988,296.765,319.606z"/>
	<path d="M251.988,261.881c-3.904-1.382-8.191,0.662-9.574,4.566c-1.482,4.189-5.467,7.003-9.913,7.003s-8.431-2.814-9.913-7.003
		c-1.383-3.905-5.669-5.948-9.574-4.566c-3.904,1.383-5.948,5.668-4.566,9.573c3.601,10.166,13.267,16.997,24.054,16.997
		s20.453-6.831,24.054-16.997C257.936,267.549,255.892,263.264,251.988,261.881z"/>
	<path d="M401.122,52.156c4.501-0.348,9.038-0.535,13.606-0.535c4.143,0,7.5-3.358,7.5-7.5s-3.357-7.5-7.5-7.5
		c-8.169,0-16.304,0.525-24.355,1.549C378.036,31.036,319.36,0,232.501,0C145.653,0,86.98,31.031,74.632,38.17
		c-8.052-1.024-16.188-1.549-24.358-1.549c-4.143,0-7.5,3.358-7.5,7.5s3.357,7.5,7.5,7.5c4.569,0,9.105,0.188,13.607,0.536
		c-15.581,28.298-23.773,60.1-23.773,92.693c0,72.75,67.556,212.125,124.228,316.236c1.36,2.499,3.936,3.916,6.594,3.916
		c1.211,0,2.44-0.294,3.579-0.914c3.638-1.98,4.981-6.535,3.001-10.173c-5.4-9.921-10.629-19.671-15.695-29.256h141.374
		c-5.066,9.585-10.294,19.335-15.695,29.256c-1.98,3.638-0.637,8.193,3.001,10.173c3.638,1.98,8.193,0.636,10.173-3.001
		c56.672-104.111,124.228-243.487,124.228-316.236C424.894,112.255,416.703,80.453,401.122,52.156z M232.501,15
		c61.691,0,109.132,16.777,133.676,27.821c-26.867,6.951-52.155,19.607-73.857,37.268c-27.152,22.096-47.84,51.225-59.818,83.752
		c-11.979-32.527-32.666-61.656-59.818-83.752C150.97,62.419,125.669,49.76,98.788,42.812C123.277,31.766,170.641,15,232.501,15z
		 M153.95,409.658C89.976,286.591,55.107,193.477,55.107,144.85c0-32.084,8.623-63.326,24.935-90.693
		c70.663,12.091,129.404,66.381,145.133,137.922c0.756,3.439,3.804,5.89,7.325,5.89s6.569-2.45,7.325-5.89
		c15.729-71.541,74.47-125.832,145.133-137.922c16.312,27.366,24.935,58.607,24.935,90.693c0,48.627-34.869,141.741-98.843,264.808
		H153.95z"/>
	<path d="M169.344,197.969c4.143,0,7.5-3.358,7.5-7.5v-44.495c0-23.435-19.065-42.5-42.5-42.5s-42.5,19.065-42.5,42.5
		s19.065,42.5,42.5,42.5c10.481,0,20.082-3.822,27.5-10.134v12.129C161.844,194.611,165.202,197.969,169.344,197.969z
		 M134.344,173.474c-15.163,0-27.5-12.336-27.5-27.5s12.337-27.5,27.5-27.5s27.5,12.336,27.5,27.5S149.508,173.474,134.344,173.474z
		"/>
</g>
<g>
</g>
<g>
</g>
<g>
</g>
<g>
</g>
<g>
</g>
<g>
</g>
<g>
</g>
<g>
</g>
<g>
</g>
<g>
</g>
<g>
</g>
<g>
</g>
<g>
</g>
<g>
</g>
<g>
</g>
</svg>
