<?xml version="1.0" encoding="iso-8859-1"?>
<!-- Generator: Adobe Illustrator 16.0.0, SVG Export Plug-In . SVG Version: 6.00 Build 0)  -->
<!DOCTYPE svg PUBLIC "-//W3C//DTD SVG 1.1//EN" "http://www.w3.org/Graphics/SVG/1.1/DTD/svg11.dtd">
<svg version="1.1" id="Capa_1" xmlns="http://www.w3.org/2000/svg" xmlns:xlink="http://www.w3.org/1999/xlink" x="0px" y="0px"
	 width="649.977px" height="649.977px" viewBox="0 0 649.977 649.977" style="enable-background:new 0 0 649.977 649.977;"
	 xml:space="preserve">
<g>
	<g>
		<path d="M421.225,96.473c-36.281,0-70.355,13.91-95.994,38.708c-25.632-24.792-59.706-38.708-95.987-38.708
			c-76.261,0-138.304,62.043-138.304,138.304c0,10.834,1.271,21.647,3.773,32.153c6.295,38.838,20.643,95.14,53.247,144.094
			c19.091,28.66,42.269,51.237,68.886,67.108c31.456,18.756,67.928,28.271,108.386,28.271c40.465,0,76.931-9.508,108.387-28.271
			c26.616-15.871,49.794-38.448,68.885-67.108c32.611-48.947,46.952-105.256,53.247-144.094c2.502-10.499,3.773-21.319,3.773-32.153
			C559.53,158.516,497.486,96.473,421.225,96.473z M175.047,392.979c-31.093-46.685-43.609-102.638-48.305-131.832l-0.102-0.635
			l-0.15-0.629c-1.996-8.189-3.001-16.63-3.001-25.099c0-58.312,47.84-105.755,106.151-105.755c31.77,0,61.415,13.958,81.92,38.394
			v168.414c-6.835-13.26-11.354-23.253-13.917-28.448l-0.403-54.484h-0.034c0.191-13.67-7.205-24.094-21.278-30.888
			c-26.179-12.639-59.835-11.395-87.983-7.499c-1.887,0.26-25.974,5.338-25.318,6.624l14.792,28.94
			c4.409-2.249,14.805-3.842,26.616-4.675c0.567,1.674,1.319,3.411,2.283,5.236c2.44,4.6,6.172,9.453,11.086,14.442
			c8.114,8.237,18.961,16.261,27.635,20.451c5.81,2.803,11.093,4.224,16.664,4.231c0.841,0,2.003-0.034,2.003-0.103v24.997
			l2.242,3.458c0.314,0.615,31.511,62.078,43.26,108.024l12.304,47.655C259.312,472.794,210.125,445.63,175.047,392.979z
			 M264.473,252.459c-0.137,0.424-0.362,0.998-0.718,1.736c-0.793,1.633-1.504,2.556-1.907,2.966
			c-0.444-0.075-1.306-0.301-2.645-0.95c-4.566-2.201-9.993-6.151-14.58-10.177c6.691,1.086,13.349,3.014,17.149,4.846
			C263.105,251.53,263.953,252.077,264.473,252.459z M523.972,259.876l-0.15,0.629l-0.103,0.635
			c-4.688,29.2-17.204,85.154-48.305,131.832c-35.071,52.658-84.388,79.822-146.595,80.826L341,426.143
			c11.743-45.946,43.192-107.409,43.507-108.024l2.242-3.465v-24.997c0,0.062,1.168,0.096,2.009,0.096
			c5.571,0,11.094-1.421,16.911-4.231c8.674-4.19,19.404-12.221,27.512-20.451c4.914-4.983,8.578-9.843,11.025-14.45
			c0.977-1.839,1.694-3.603,2.269-5.284c13.808,1.025,23.356,3.028,26.597,4.682l14.784-28.995
			c-14.736-5.072-28.004-7.369-41.47-8.25c-22.699-1.483-50.71-0.964-71.838,9.234c-14.088,6.801-21.477,17.225-21.285,30.895
			h-0.034l-0.41,54.477c-2.557,5.188-7.081,15.181-13.916,28.448V167.416c20.505-24.429,50.149-38.394,81.92-38.394
			c58.312,0,105.953,47.437,105.953,105.755C526.775,243.246,525.968,251.694,523.972,259.876z M385.997,252.459
			c0.52-0.39,1.366-0.93,2.699-1.572c3.801-1.839,10.458-3.76,17.15-4.846c-4.587,4.026-10.014,7.977-14.58,10.177
			c-1.347,0.649-2.208,0.875-2.646,0.95c-0.403-0.417-1.114-1.333-1.906-2.966C386.359,253.458,386.133,252.883,385.997,252.459z"/>
		<path d="M629.119,586.765c-0.212-1.429-21.518-145.017-21.518-329.958c0-34.948-6.849-68.851-20.354-100.785
			c-13.042-30.834-31.709-58.523-55.482-82.29c-23.772-23.773-51.462-41.388-82.296-54.429C417.541,5.796,383.631,0,348.69,0
			h-46.904c-34.949,0-68.858,5.796-100.792,19.303c-30.834,13.042-58.523,31.183-82.29,54.955
			c-23.773,23.773-42.44,51.196-55.481,82.03c-13.506,31.928-20.355,65.708-20.355,100.656c0,184.941-21.306,328.461-21.517,329.89
			l-2.365,15.659l15.632,2.741c0.772,0.137,19.221,3.335,42.57,3.335c23.951,0,44.279-3.355,60.553-9.884
			c-2.939,8.564-7.067,18.25-12.871,28.701l-13.13,22.591l27.102-0.629c0,0,0.355,0,1.032,0c5.796,0,36.336,0.622,68.072-8.995
			c26.145-7.922,46.61-19.521,60.745-35.324c0.438,0.909,0.889,2.091,1.353,3c11.723,22.7,29.727,36.809,52.071,40.916l2.939,0.41
			h0.178l0.178,0.253l2.939-0.431c22.344-4.107,40.348-18.223,52.07-40.923c0.472-0.909,0.923-1.79,1.36-2.699
			c14.136,15.803,34.593,26.862,60.738,34.784c31.742,9.617,62.275,9.009,68.079,9.009c0.676,0,1.031,0,1.031,0l27.219,0.622
			l-13.274-23.185c-5.844-10.451-10.978-19.856-13.917-28.422c16.289,6.556,39.146,10.055,59.651,10.055v0.068
			c27.341,0,42.782-3.171,43.562-3.308l16.124-2.741L629.119,586.765z M573.289,576.006L573.289,576.006
			c-21.019,0-58.018-3.172-69.706-24.382l-26.22-47.587l-4.258,54.163c-0.82,10.431,1.229,32.262,11.674,58.912
			c-31.229-4.039-80.778-16.691-91.202-56.274c-1.935-7.354-8.592-12.494-16.199-12.494c-8.381,0-15.523,6.268-16.61,14.579
			c-0.656,5.031-2.884,18.072-9.269,30.438c-6.589,12.755-15.201,20.396-26.268,23.288c-11.066-2.885-19.679-10.533-26.268-23.288
			c-6.384-12.365-8.606-25.406-9.269-30.444c-1.087-8.312-8.23-14.572-16.61-14.572c-7.601,0-14.258,5.133-16.2,12.487
			c-10.43,39.617-60.047,52.263-91.271,56.288c10.403-26.623,12.516-48.42,11.757-58.83l-4.005-54.724l-26.48,48.059
			c-11.688,21.217-48.687,24.382-69.699,24.382c-7.99,0-15.366-0.438-21.395-0.964c5.591-43.363,19.624-167.293,19.624-318.235
			c0-60.464,23.547-118.858,66.302-161.612s99.604-67.854,160.061-67.854h46.904c60.464,0,117.306,25.099,160.061,67.854
			c42.754,42.754,66.302,100.375,66.302,160.84c0,150.942,14.039,275.262,19.631,318.625
			C588.647,575.186,581.272,576.006,573.289,576.006z"/>
	</g>
</g>
<g>
</g>
<g>
</g>
<g>
</g>
<g>
</g>
<g>
</g>
<g>
</g>
<g>
</g>
<g>
</g>
<g>
</g>
<g>
</g>
<g>
</g>
<g>
</g>
<g>
</g>
<g>
</g>
<g>
</g>
</svg>
