<?xml version="1.0" encoding="iso-8859-1"?>
<!-- Generator: Adobe Illustrator 19.0.0, SVG Export Plug-In . SVG Version: 6.00 Build 0)  -->
<svg version="1.1" id="Layer_1" xmlns="http://www.w3.org/2000/svg" xmlns:xlink="http://www.w3.org/1999/xlink" x="0px" y="0px"
	 viewBox="0 0 512 512" style="enable-background:new 0 0 512 512;" xml:space="preserve">
<g>
	<g>
		<path d="M256,0C164.13,0,89.025,72.232,83.968,162.859c4.855-47.642,45.212-84.946,94.119-84.946
			c32.296,0,60.834,16.291,77.913,41.06c17.079-24.77,45.617-41.06,77.913-41.06c48.907,0,89.264,37.305,94.119,84.946
			C422.975,72.232,347.87,0,256,0z"/>
	</g>
</g>
<g>
	<g>
		<path d="M333.913,111.304c-33.755,0-61.217,27.468-61.217,61.217c0,9.22-7.475,16.696-16.696,16.696s-16.696-7.475-16.696-16.696
			c0-33.75-27.462-61.217-61.217-61.217s-61.217,27.468-61.217,61.217c0,76.718,62.413,139.13,139.13,139.13
			s139.13-62.413,139.13-139.13C395.13,138.772,367.668,111.304,333.913,111.304z M178.087,194.783
			c-12.277,0-22.261-9.99-22.261-22.261s9.984-22.261,22.261-22.261s22.261,9.99,22.261,22.261S190.364,194.783,178.087,194.783z
			 M301.195,239.979l-33.391,33.391c-6.521,6.521-17.087,6.521-23.609,0l-33.391-33.391c-6.521-6.521-6.521-17.087,0-23.609
			c6.521-6.521,17.087-6.521,23.609,0L256,237.956l21.587-21.588c3.261-3.261,7.533-4.892,11.804-4.892s8.544,1.631,11.804,4.892
			C307.718,222.891,307.718,233.456,301.195,239.979z M333.913,194.783c-12.277,0-22.261-9.99-22.261-22.261
			s9.984-22.261,22.261-22.261c12.277,0,22.261,9.99,22.261,22.261S346.19,194.783,333.913,194.783z"/>
	</g>
</g>
<g>
	<g>
		<path d="M264.146,344.631c-23.65,77.499-95.428,133.978-180.667,133.978h-0.001v16.696c0,9.22,7.475,16.696,16.696,16.696h111.304
			c119.869,0,217.043-97.173,217.043-217.043V172.522C428.522,264.903,355.483,340.334,264.146,344.631z"/>
	</g>
</g>
<g>
	<g>
		<path d="M83.478,172.522v205.717c22.504,0.117,42.197-8.437,56.195-19.923c7.13-5.848,17.647-4.794,23.5,2.326
			c5.842,7.13,4.804,17.652-2.326,23.5c-22.511,18.456-49,27.739-76.222,27.739c-0.381,0-0.765-0.041-1.146-0.044v33.269
			c67.122-0.009,124.366-42.652,146.237-102.281C147.05,330.101,83.478,258.695,83.478,172.522z"/>
	</g>
</g>
<g>
</g>
<g>
</g>
<g>
</g>
<g>
</g>
<g>
</g>
<g>
</g>
<g>
</g>
<g>
</g>
<g>
</g>
<g>
</g>
<g>
</g>
<g>
</g>
<g>
</g>
<g>
</g>
<g>
</g>
</svg>
