<?xml version="1.0" encoding="iso-8859-1"?>
<!-- Generator: Adobe Illustrator 19.0.0, SVG Export Plug-In . SVG Version: 6.00 Build 0)  -->
<svg version="1.1" id="Layer_1" xmlns="http://www.w3.org/2000/svg" xmlns:xlink="http://www.w3.org/1999/xlink" x="0px" y="0px"
	 viewBox="0 0 511.999 511.999" style="enable-background:new 0 0 511.999 511.999;" xml:space="preserve">
<g>
	<g>
		<path d="M448.848,10.458c0.917-3.671-0.726-7.502-4.019-9.365c-3.294-1.863-7.422-1.304-10.099,1.372
			c-29.173,29.174-65.972,48.898-106.418,57.038C295.399,66.13,268.855,88.633,256,118.006
			c-12.855-29.373-39.399-51.877-72.314-58.502c-9.396-1.892-18.747-4.456-27.791-7.622c-4.388-1.536-9.189,0.775-10.726,5.162
			c-1.535,4.388,0.775,9.189,5.163,10.725c9.773,3.422,19.878,6.194,30.033,8.237c38.782,7.806,66.975,42.071,67.217,81.586
			l-72.464-34.425c-38.627-18.351-68.768-49.572-85.742-87.952c10.213,7.674,21.072,14.472,32.494,20.335
			c4.135,2.12,9.208,0.492,11.332-3.645c2.122-4.135,0.49-9.209-3.645-11.331c-19.33-9.922-36.921-22.743-52.289-38.108
			c-2.674-2.675-6.805-3.235-10.098-1.372c-3.293,1.864-4.936,5.695-4.019,9.366c9.555,38.214,30.192,71.94,58.84,97.474
			c-13.366,12.168-22.489,28.267-26.112,45.863c-0.806,0.889-1.441,1.959-1.815,3.183c-0.613,2.005-14.856,49.884-2.619,117.706
			c7.163,39.702,21.984,78.033,44.053,113.924c27.465,44.671,66.28,85.636,115.362,121.755c1.484,1.092,3.237,1.637,4.988,1.637
			c1.752,0,3.505-0.545,4.988-1.637c49.084-36.12,87.897-77.083,115.363-121.755c22.067-35.891,36.89-74.222,44.053-113.924
			c12.237-67.822-2.007-115.7-2.619-117.706c-0.313-1.025-0.81-1.94-1.434-2.735c-3.557-17.77-12.719-34.038-26.196-46.309
			C418.655,82.402,439.295,48.675,448.848,10.458z M256.009,207.813c6.397,13.25,16.14,24.585,28.108,32.942l-28.267,28.267
			l-28.139-28.14C239.767,232.513,249.577,221.129,256.009,207.813z M191.395,170.91c0,6.85-5.573,12.422-12.423,12.422
			c-6.85,0-12.422-5.573-12.422-12.422c0-6.85,5.573-12.423,12.422-12.423C185.823,158.487,191.395,164.059,191.395,170.91z
			 M135.213,118.718c10.121,7.529,21.048,14.127,32.682,19.654l7.409,3.519c-14.405,1.811-25.587,14.129-25.587,29.017
			c0,16.132,13.123,29.255,29.255,29.255s29.256-13.124,29.256-29.255c0-5.687-1.636-10.997-4.456-15.492l43.602,20.714
			c-2.673,35.236-32.189,63.094-68.111,63.094c-37.663,0-68.302-30.64-68.302-68.302
			C110.961,150.729,119.927,131.635,135.213,118.718z M245.031,484.68c-39.705-31.609-71.583-66.642-94.871-104.366
			c-19.62-31.782-33.245-65.55-40.559-100.478c36.738,8.933,70.057,29.403,94.818,58.487
			c27.739,32.584,43.016,74.127,43.016,116.977C247.435,465.164,246.616,474.999,245.031,484.68z M405.285,261.889
			c-34.452,7.004-66.384,23.112-92.668,46.835c-3.45,3.114-3.722,8.437-0.608,11.887c1.661,1.842,3.951,2.778,6.25,2.778
			c2.01,0,4.028-0.716,5.637-2.169c22.368-20.189,49.199-34.349,78.194-41.382c-7.273,34.735-20.779,68.323-40.228,99.954
			c-23.316,37.923-55.303,73.132-95.19,104.886c-1.583-9.679-2.403-19.513-2.403-29.378c0-38.684,12.053-75.567,34.857-106.663
			c2.748-3.748,1.939-9.016-1.809-11.764c-3.747-2.748-9.015-1.939-11.764,1.81c-13.371,18.233-23.357,38.286-29.748,59.482
			c-7.805-25.811-20.859-49.954-38.567-70.754c-28.66-33.666-67.826-56.768-110.818-65.523c-2.848-19.577-3.383-37.216-2.827-52.032
			c14.16,27.408,42.753,46.201,75.672,46.201c11.74,0,22.932-2.387,33.116-6.701l37.518,37.519c1.579,1.579,3.719,2.466,5.952,2.466
			c2.233,0,4.372-0.887,5.952-2.466l37.614-37.612c10.238,4.37,21.496,6.794,33.313,6.794c32.727,0,61.182-18.574,75.427-45.724
			C408.676,225.029,408.114,242.487,405.285,261.889z M401.03,170.921c0,37.662-30.64,68.302-68.302,68.302
			c-35.91,0-65.416-27.864-68.083-63.103l43.152-20.501c-2.74,4.452-4.325,9.688-4.325,15.289c0,16.132,13.123,29.255,29.255,29.255
			s29.256-13.124,29.256-29.255c0-14.808-11.061-27.073-25.351-28.988l7.472-3.55c11.633-5.526,22.558-12.122,32.679-19.65
			C392.066,131.637,401.03,150.73,401.03,170.921z M320.305,170.91c0-6.85,5.573-12.423,12.422-12.423
			c6.85,0,12.423,5.573,12.423,12.423c0,6.85-5.573,12.422-12.423,12.422C325.877,183.331,320.305,177.758,320.305,170.91z
			 M336.881,123.168l-72.463,34.425c0.241-39.517,28.434-73.781,67.216-81.587c33.237-6.69,64.192-20.615,90.98-40.767
			C405.638,73.607,375.501,104.821,336.881,123.168z"/>
	</g>
</g>
<g>
</g>
<g>
</g>
<g>
</g>
<g>
</g>
<g>
</g>
<g>
</g>
<g>
</g>
<g>
</g>
<g>
</g>
<g>
</g>
<g>
</g>
<g>
</g>
<g>
</g>
<g>
</g>
<g>
</g>
</svg>
