<?xml version="1.0" encoding="iso-8859-1"?>
<!-- Generator: Adobe Illustrator 19.0.0, SVG Export Plug-In . SVG Version: 6.00 Build 0)  -->
<svg version="1.1" id="Capa_1" xmlns="http://www.w3.org/2000/svg" xmlns:xlink="http://www.w3.org/1999/xlink" x="0px" y="0px"
	 viewBox="0 0 470 470" style="enable-background:new 0 0 470 470;" xml:space="preserve">
<g>
	<path d="M156.563,80c-24.813,0-45,20.187-45,45s20.187,45,45,45s45-20.187,45-45S181.376,80,156.563,80z M156.563,155
		c-16.542,0-30-13.458-30-30s13.458-30,30-30s30,13.458,30,30S173.105,155,156.563,155z"/>
	<circle cx="156.563" cy="125" r="7.5"/>
	<path d="M313.438,170c24.813,0,45-20.187,45-45s-20.187-45-45-45s-45,20.187-45,45S288.624,170,313.438,170z M313.438,95
		c16.542,0,30,13.458,30,30s-13.458,30-30,30s-30-13.458-30-30S296.896,95,313.438,95z"/>
	<circle cx="313.437" cy="125" r="7.5"/>
	<path d="M390,0c-28.043,0-54.447,7.146-77.495,19.704C289.455,7.144,263.046,0,235,0s-54.455,7.144-77.505,19.704
		C134.447,7.146,108.044,0,80,0c-4.143,0-7.5,3.357-7.5,7.5v154.871c-0.001,0.081-0.001,0.162,0,0.243V462.5
		c0,2.733,1.486,5.25,3.88,6.568c2.392,1.318,5.314,1.233,7.626-0.228c14.175-8.955,26.833-19.6,37.819-31.565V462.5
		c0,4.143,3.357,7.5,7.5,7.5s7.5-3.357,7.5-7.5v-18.094l13.182,7.029V462.5c0,4.143,3.357,7.5,7.5,7.5s7.5-3.357,7.5-7.5v-10.037
		l13.183-7.217V462.5c0,4.143,3.357,7.5,7.5,7.5s7.5-3.357,7.5-7.5v-25.466l3.117-1.707l35.175,18.76
		c2.205,1.178,4.854,1.178,7.059,0l35.22-18.784l3.064,1.634V462.5c0,4.143,3.357,7.5,7.5,7.5s7.5-3.357,7.5-7.5v-17.563
		l13.182,7.031V462.5c0,4.143,3.357,7.5,7.5,7.5s7.5-3.357,7.5-7.5v-10.53l13.182-7.031V462.5c0,4.143,3.357,7.5,7.5,7.5
		s7.5-3.357,7.5-7.5v-25.21c10.983,11.959,23.637,22.599,37.807,31.551c1.221,0.771,2.612,1.159,4.006,1.159
		c1.244,0,2.491-0.31,3.62-0.932c2.394-1.318,3.88-3.835,3.88-6.568V162.614c0.001-0.081,0.001-0.162,0-0.243V7.5
		C397.5,3.357,394.143,0,390,0z M235,15c22.347,0,43.545,5.005,62.544,13.938C268.267,49.267,245.957,78.96,235,113.65
		c-10.957-34.69-33.267-64.383-62.544-84.713C191.455,20.005,212.653,15,235,15z M87.5,15.188
		c19.594,0.987,38.191,5.818,55.055,13.749C118.866,45.384,99.744,67.96,87.5,94.355V15.188z M87.5,448.227V176.773
		c42.662,32.029,67.743,81.804,67.743,135.727c0,40.735-14.322,79.098-39.715,109.236c-0.437,0.401-0.835,0.855-1.175,1.368
		C106.416,432.324,97.442,440.762,87.5,448.227z M270.231,420.186l-35.22,18.784l-35.222-18.784
		c-2.231-1.19-4.913-1.175-7.131,0.038l-9.295,5.089c-0.897,0.292-1.722,0.747-2.435,1.333l-22.465,12.299l-26.259-14.004
		c24.391-31.742,38.039-70.959,38.039-112.441c0-62.368-30.831-119.637-82.686-154.04c1.385-51.245,29.038-96.044,69.949-121.409
		C199.484,63.081,227.5,109.58,227.5,162.5c0,4.143,3.357,7.5,7.5,7.5s7.5-3.357,7.5-7.5c0-52.92,28.016-99.419,69.994-125.449
		c40.911,25.364,68.564,70.164,69.949,121.409c-51.855,34.403-82.686,91.672-82.686,154.04c0,41.648,13.753,81.017,38.328,112.826
		l-25.577,13.644L287.9,425.845c-0.002-0.001-10.611-5.66-10.611-5.66C275.084,419.008,272.436,419.007,270.231,420.186z
		 M382.5,448.227c-9.809-7.364-18.675-15.676-26.534-24.751c-0.342-0.517-0.742-0.973-1.183-1.377
		c-25.586-30.193-40.026-68.698-40.026-109.598c0-53.923,25.081-103.697,67.743-135.727V448.227z M327.445,28.937
		c16.864-7.93,35.461-12.762,55.055-13.749v79.167C370.256,67.96,351.134,45.384,327.445,28.937z"/>
	<circle cx="242.319" cy="346.955" r="7.5"/>
	<circle cx="272.319" cy="376.956" r="7.5"/>
</g>
<g>
</g>
<g>
</g>
<g>
</g>
<g>
</g>
<g>
</g>
<g>
</g>
<g>
</g>
<g>
</g>
<g>
</g>
<g>
</g>
<g>
</g>
<g>
</g>
<g>
</g>
<g>
</g>
<g>
</g>
</svg>
