<?xml version="1.0" encoding="iso-8859-1"?>
<!-- Generator: Adobe Illustrator 18.1.1, SVG Export Plug-In . SVG Version: 6.00 Build 0)  -->
<svg version="1.1" id="Capa_1" xmlns="http://www.w3.org/2000/svg" xmlns:xlink="http://www.w3.org/1999/xlink" x="0px" y="0px"
	 viewBox="0 0 612.001 612.001" style="enable-background:new 0 0 612.001 612.001;" xml:space="preserve">
<g>
	<g>
		<path d="M483.918,81.625c-3.322,12.117-2.992,24.37,0.314,35.597l-70.15,39.963c5.91,8.084,10.887,16.805,14.872,26.085
			l70.141-39.958c7.971,8.57,18.344,15.101,30.46,18.423c34.724,9.52,70.59-10.913,80.11-45.637s-10.913-70.591-45.637-80.11
			C529.304,26.469,493.437,46.901,483.918,81.625z"/>
		<path d="M82.447,161.735c12.116-3.322,22.489-9.854,30.459-18.423l70.141,39.958c3.986-9.28,8.962-18,14.872-26.085l-70.15-39.963
			c3.306-11.227,3.635-23.481,0.314-35.597c-9.52-34.724-45.386-55.156-80.11-45.637s-55.156,45.386-45.637,80.11
			C11.857,150.822,47.723,171.254,82.447,161.735z"/>
		<path d="M306.001,369.812c-5.05,0-10.056-0.288-15.013-0.84v80.745c-11.391,2.684-22.202,8.457-31.085,17.341
			c-25.46,25.46-25.46,66.737,0,92.197c25.459,25.46,66.737,25.46,92.197,0s25.46-66.737,0-92.197
			c-8.883-8.883-19.695-14.657-31.085-17.341v-80.745C316.057,369.524,311.05,369.812,306.001,369.812z"/>
		<path d="M409.752,236.035c0-13.331-2.518-26.074-7.098-37.783c-3.695-9.446-8.734-18.217-14.883-26.079
			c-18.99-24.281-48.557-39.89-81.77-39.89c-33.214,0-62.781,15.609-81.77,39.89c-6.149,7.862-11.188,16.633-14.883,26.079
			c-4.58,11.708-7.098,24.451-7.098,37.783c0,52.201,38.553,95.391,88.737,102.666c4.902,0.711,9.913,1.085,15.013,1.085
			s10.111-0.374,15.013-1.085C371.199,331.425,409.752,288.235,409.752,236.035z"/>
	</g>
</g>
<g>
</g>
<g>
</g>
<g>
</g>
<g>
</g>
<g>
</g>
<g>
</g>
<g>
</g>
<g>
</g>
<g>
</g>
<g>
</g>
<g>
</g>
<g>
</g>
<g>
</g>
<g>
</g>
<g>
</g>
</svg>
