<?xml version='1.0' encoding='utf-8'?>
<!DOCTYPE svg PUBLIC '-//W3C//DTD SVG 1.1//EN' 'http://www.w3.org/Graphics/SVG/1.1/DTD/svg11.dtd'>
<svg version="1.1" xmlns="http://www.w3.org/2000/svg" viewBox="0 0 512 512" xmlns:xlink="http://www.w3.org/1999/xlink" enable-background="new 0 0 512 512">
  <g>
    <g>
      <path d="m491.2,301.8l-88.6-53.9c-6.6-4-14.9-4-21.5,0l-88.6,53.9c-6.1,3.7-9.8,10.3-9.8,17.3v107.7c0,7.1 3.7,13.6 9.8,17.3l88.6,53.9c3.3,2 12,5.6 21.5,0l88.6-53.9c6.1-3.7 9.8-10.3 9.8-17.3v-107.7c-5.68434e-14-7.1-3.7-13.6-9.8-17.3zm-31.3,113.6l-68.1,41.4-68.1-41.4v-84.9l68.1-41.4 68.1,41.4v84.9z"/>
      <path d="m219.5,301.8l-88.6-53.9c-6.6-4-14.9-4-21.5,0l-88.6,53.9c-6.1,3.7-9.8,10.3-9.8,17.3v107.7c0,7.1 3.7,13.6 9.8,17.3l88.6,53.9c3.3,2 12,5.6 21.5,0l88.6-53.9c6.1-3.7 9.8-10.3 9.8-17.3v-107.7c0-7.1-3.7-13.6-9.8-17.3zm-31.2,113.6l-68.1,41.4-68.1-41.4v-84.9l68.1-41.4 68.1,41.4v84.9z"/>
      <path d="m365.2,192.9v-107.7c0-7.1-3.7-13.6-9.8-17.3l-88.7-53.9c-6.6-4-14.9-4-21.5,0l-88.6,53.9c-6.1,3.7-9.8,10.3-9.8,17.3v107.7c0,7.1 3.7,13.6 9.8,17.3l88.6,53.9c3.3,2 12,5.6 21.5,0l88.6-53.9c6.2-3.6 9.9-10.2 9.9-17.3zm-41.1-11.4l-68.1,41.4-68.1-41.4v-84.9l68.1-41.4 68.1,41.4v84.9z"/>
    </g>
  </g>
</svg>
