<?xml version="1.0" encoding="iso-8859-1"?>
<!-- Generator: Adobe Illustrator 19.0.0, SVG Export Plug-In . SVG Version: 6.00 Build 0)  -->
<svg version="1.1" id="Layer_1" xmlns="http://www.w3.org/2000/svg" xmlns:xlink="http://www.w3.org/1999/xlink" x="0px" y="0px"
	 viewBox="0 0 500 500" style="enable-background:new 0 0 500 500;" xml:space="preserve">
<g>
	<g>
		<path d="M441.348,382.642c-11.9,0-22.956,3.584-32.212,9.688l-88.324-88.744c-0.748-0.748-1.584-1.332-2.456-1.836
			c10.924-14.4,17.424-32.332,17.424-51.752c0-27.66-13.172-52.284-33.556-67.984l36.38-63.916c5.98,1.98,12.352,3.092,18.984,3.092
			c33.4,0,60.572-27.168,60.572-60.568c0-33.396-27.172-60.568-60.572-60.568c-33.4,0-60.568,27.176-60.568,60.572
			c0,18.364,8.248,34.808,21.192,45.924l-36.34,63.836c-9.864-3.96-20.612-6.168-31.872-6.168c-19.388,0-37.284,6.476-51.668,17.364
			c-0.18-0.208-0.316-0.436-0.512-0.628l-49.764-50.008c2.692-5.304,4.244-11.28,4.244-17.624c0-21.56-17.536-39.1-39.096-39.1
			c-21.56,0-39.096,17.544-39.096,39.1c0,21.556,17.536,39.096,39.096,39.096c6.692,0,12.996-1.696,18.504-4.668l49.5,49.74
			c0.196,0.196,0.424,0.336,0.632,0.516c-11.04,14.436-17.62,32.46-17.62,51.996c0,17.18,5.096,33.18,13.828,46.608L96.24,367.53
			c-10.032-7.384-22.372-11.808-35.756-11.808C27.132,355.722,0,382.854,0,416.206c0,33.352,27.132,60.484,60.484,60.484
			s60.484-27.132,60.484-60.484c0-11.5-3.284-22.228-8.88-31.396l81.276-70.464c15.124,13.324,34.944,21.432,56.636,21.432
			c19.744,0,37.94-6.724,52.452-17.976c0.484,0.82,1.044,1.608,1.752,2.316l88.316,88.74c-6.196,9.296-9.828,20.444-9.828,32.432
			c0,32.34,26.316,58.656,58.656,58.656c32.344,0,58.652-26.312,58.652-58.656C500,408.954,473.692,382.642,441.348,382.642z"/>
	</g>
</g>
<g>
</g>
<g>
</g>
<g>
</g>
<g>
</g>
<g>
</g>
<g>
</g>
<g>
</g>
<g>
</g>
<g>
</g>
<g>
</g>
<g>
</g>
<g>
</g>
<g>
</g>
<g>
</g>
<g>
</g>
</svg>
